<mxfile host="app.diagrams.net" modified="2024-08-28T15:47:42.252Z" agent="Mozilla/5.0 (Windows NT 10.0; Win64; x64) AppleWebKit/537.36 (KHTML, like Gecko) Chrome/127.0.0.0 Safari/537.36" etag="Atz9KQAJxnzYll90eTi1" version="24.4.10" type="github">
  <diagram name="Page-1" id="TswOkcbOxJksG1xE5W1X">
    <mxGraphModel dx="1932" dy="1718" grid="1" gridSize="10" guides="1" tooltips="1" connect="1" arrows="1" fold="1" page="1" pageScale="1" pageWidth="827" pageHeight="1169" math="0" shadow="0">
      <root>
        <mxCell id="0" />
        <mxCell id="1" parent="0" />
        <mxCell id="_fBAPdAfYRDBdJ_oHnz5-30" value="" style="group" vertex="1" connectable="0" parent="1">
          <mxGeometry x="-160" y="-85" width="580" height="245" as="geometry" />
        </mxCell>
        <mxCell id="_fBAPdAfYRDBdJ_oHnz5-1" value="" style="shape=folder;fontStyle=1;spacingTop=10;tabWidth=160;tabHeight=20;tabPosition=left;html=1;whiteSpace=wrap;" vertex="1" parent="_fBAPdAfYRDBdJ_oHnz5-30">
          <mxGeometry y="5" width="580" height="240" as="geometry" />
        </mxCell>
        <mxCell id="_fBAPdAfYRDBdJ_oHnz5-29" value="Authentication Module" style="text;html=1;align=center;verticalAlign=middle;whiteSpace=wrap;rounded=0;" vertex="1" parent="_fBAPdAfYRDBdJ_oHnz5-30">
          <mxGeometry x="10" width="140" height="30" as="geometry" />
        </mxCell>
        <mxCell id="_fBAPdAfYRDBdJ_oHnz5-2" value="Actor" style="shape=umlActor;verticalLabelPosition=bottom;verticalAlign=top;html=1;" vertex="1" parent="1">
          <mxGeometry x="-280" y="210" width="30" height="60" as="geometry" />
        </mxCell>
        <mxCell id="_fBAPdAfYRDBdJ_oHnz5-3" value="package" style="shape=folder;fontStyle=1;spacingTop=10;tabWidth=40;tabHeight=14;tabPosition=left;html=1;whiteSpace=wrap;" vertex="1" parent="1">
          <mxGeometry x="-160" y="280" width="400" height="280" as="geometry" />
        </mxCell>
        <mxCell id="_fBAPdAfYRDBdJ_oHnz5-20" style="edgeStyle=orthogonalEdgeStyle;rounded=0;orthogonalLoop=1;jettySize=auto;html=1;exitX=1;exitY=0.5;exitDx=0;exitDy=0;" edge="1" parent="1" source="_fBAPdAfYRDBdJ_oHnz5-5" target="_fBAPdAfYRDBdJ_oHnz5-7">
          <mxGeometry relative="1" as="geometry" />
        </mxCell>
        <mxCell id="_fBAPdAfYRDBdJ_oHnz5-21" value="&amp;lt;include&amp;gt;" style="edgeLabel;html=1;align=center;verticalAlign=middle;resizable=0;points=[];" vertex="1" connectable="0" parent="_fBAPdAfYRDBdJ_oHnz5-20">
          <mxGeometry x="-0.1068" y="-1" relative="1" as="geometry">
            <mxPoint as="offset" />
          </mxGeometry>
        </mxCell>
        <mxCell id="_fBAPdAfYRDBdJ_oHnz5-5" value="Sign Up" style="ellipse;whiteSpace=wrap;html=1;align=center;" vertex="1" parent="1">
          <mxGeometry x="-140" y="-40" width="100" height="40" as="geometry" />
        </mxCell>
        <mxCell id="_fBAPdAfYRDBdJ_oHnz5-26" style="edgeStyle=orthogonalEdgeStyle;rounded=0;orthogonalLoop=1;jettySize=auto;html=1;exitX=1;exitY=0.5;exitDx=0;exitDy=0;entryX=0;entryY=0.5;entryDx=0;entryDy=0;" edge="1" parent="1" source="_fBAPdAfYRDBdJ_oHnz5-6" target="_fBAPdAfYRDBdJ_oHnz5-10">
          <mxGeometry relative="1" as="geometry" />
        </mxCell>
        <mxCell id="_fBAPdAfYRDBdJ_oHnz5-27" value="&amp;lt;include&amp;gt;" style="edgeLabel;html=1;align=center;verticalAlign=middle;resizable=0;points=[];" vertex="1" connectable="0" parent="_fBAPdAfYRDBdJ_oHnz5-26">
          <mxGeometry x="-0.128" relative="1" as="geometry">
            <mxPoint as="offset" />
          </mxGeometry>
        </mxCell>
        <mxCell id="_fBAPdAfYRDBdJ_oHnz5-6" value="Login" style="ellipse;whiteSpace=wrap;html=1;align=center;" vertex="1" parent="1">
          <mxGeometry x="-140" y="90" width="100" height="40" as="geometry" />
        </mxCell>
        <mxCell id="_fBAPdAfYRDBdJ_oHnz5-7" value="Verify Email" style="ellipse;whiteSpace=wrap;html=1;align=center;" vertex="1" parent="1">
          <mxGeometry x="75" y="-40" width="100" height="40" as="geometry" />
        </mxCell>
        <mxCell id="_fBAPdAfYRDBdJ_oHnz5-8" value="Create Default Server" style="ellipse;whiteSpace=wrap;html=1;align=center;" vertex="1" parent="1">
          <mxGeometry x="240" width="170" height="40" as="geometry" />
        </mxCell>
        <mxCell id="_fBAPdAfYRDBdJ_oHnz5-28" style="edgeStyle=orthogonalEdgeStyle;rounded=0;orthogonalLoop=1;jettySize=auto;html=1;exitX=1;exitY=0.5;exitDx=0;exitDy=0;" edge="1" parent="1" source="_fBAPdAfYRDBdJ_oHnz5-10" target="_fBAPdAfYRDBdJ_oHnz5-12">
          <mxGeometry relative="1" as="geometry" />
        </mxCell>
        <mxCell id="_fBAPdAfYRDBdJ_oHnz5-10" value="Access Default Server" style="ellipse;whiteSpace=wrap;html=1;align=center;" vertex="1" parent="1">
          <mxGeometry x="40" y="90" width="170" height="40" as="geometry" />
        </mxCell>
        <mxCell id="_fBAPdAfYRDBdJ_oHnz5-12" value="Virw Server" style="ellipse;whiteSpace=wrap;html=1;align=center;" vertex="1" parent="1">
          <mxGeometry x="275" y="90" width="100" height="40" as="geometry" />
        </mxCell>
        <mxCell id="_fBAPdAfYRDBdJ_oHnz5-23" value="" style="curved=1;endArrow=classic;html=1;rounded=0;exitX=1;exitY=0.5;exitDx=0;exitDy=0;entryX=0;entryY=0;entryDx=0;entryDy=0;" edge="1" parent="1" source="_fBAPdAfYRDBdJ_oHnz5-7" target="_fBAPdAfYRDBdJ_oHnz5-8">
          <mxGeometry width="50" height="50" relative="1" as="geometry">
            <mxPoint x="130" y="60" as="sourcePoint" />
            <mxPoint x="180" y="10" as="targetPoint" />
            <Array as="points">
              <mxPoint x="260" y="-10" />
            </Array>
          </mxGeometry>
        </mxCell>
        <mxCell id="_fBAPdAfYRDBdJ_oHnz5-24" value="&amp;lt;include&amp;gt;" style="edgeLabel;html=1;align=center;verticalAlign=middle;resizable=0;points=[];" vertex="1" connectable="0" parent="_fBAPdAfYRDBdJ_oHnz5-23">
          <mxGeometry x="-0.0162" y="-2" relative="1" as="geometry">
            <mxPoint as="offset" />
          </mxGeometry>
        </mxCell>
      </root>
    </mxGraphModel>
  </diagram>
</mxfile>
